<svg width="221" height="172" viewBox="0 0 221 172" fill="none" xmlns="http://www.w3.org/2000/svg">
<path fill-rule="evenodd" clip-rule="evenodd" d="M198.737 142.723C203.833 130.63 206.659 117.364 206.659 103.445C206.659 47.0419 160.448 1.32068 103.438 1.32068C46.4312 1.32068 0.217285 47.0419 0.217285 103.445C0.217285 117.364 3.04295 130.63 8.14271 142.723H198.737Z" fill="#FE3C72" fill-opacity="0.102082"/>
<path fill-rule="evenodd" clip-rule="evenodd" d="M178.968 144.33C185.216 132.59 188.793 119.241 188.793 105.052C188.793 58.4119 150.579 20.6028 103.439 20.6028C56.2997 20.6028 18.0854 58.4119 18.0854 105.052C18.0854 119.241 21.6595 132.59 27.9108 144.33H178.968Z" fill="#FE3C72"/>
<path d="M19.5725 141.116H13.1212C12.2304 141.116 11.5084 141.836 11.5084 142.723C11.5084 143.61 12.2304 144.33 13.1212 144.33H19.5725C20.4632 144.33 21.1853 143.61 21.1853 142.723C21.1853 141.836 20.4632 141.116 19.5725 141.116Z" fill="#504B46"/>
<path d="M193.758 141.116H187.306C186.416 141.116 185.693 141.836 185.693 142.723C185.693 143.61 186.416 144.33 187.306 144.33H193.758C194.648 144.33 195.37 143.61 195.37 142.723C195.37 141.836 194.648 141.116 193.758 141.116Z" fill="#504B46"/>
<path d="M26.0238 144.33H180.855C181.746 144.33 182.468 143.61 182.468 142.723C182.468 141.836 181.746 141.116 180.855 141.116H26.0238C25.133 141.116 24.4109 141.836 24.4109 142.723C24.4109 143.61 25.133 144.33 26.0238 144.33Z" fill="#504B46"/>
<path fill-rule="evenodd" clip-rule="evenodd" d="M116.14 86.4835H96.7865C78.9712 86.4835 64.53 100.871 64.53 118.62V120.227H80.6582V142.723H132.269V120.227H148.397V118.62C148.397 100.871 133.956 86.4835 116.14 86.4835" fill="#4F6FC0"/>
<path fill-rule="evenodd" clip-rule="evenodd" d="M148.04 114.1C147.957 113.499 147.882 112.891 147.766 112.3C147.66 112.512 147.589 112.743 147.589 112.997C147.589 113.425 147.766 113.81 148.04 114.1" fill="white"/>
<path fill-rule="evenodd" clip-rule="evenodd" d="M141.139 103.355C140.249 103.355 139.526 104.075 139.526 104.962C139.526 105.849 140.249 106.569 141.139 106.569C142.029 106.569 142.752 105.849 142.752 104.962C142.752 104.075 142.029 103.355 141.139 103.355" fill="white"/>
<path fill-rule="evenodd" clip-rule="evenodd" d="M141.139 119.424C140.546 119.424 140.052 119.758 139.772 120.23H142.507C142.226 119.758 141.733 119.424 141.139 119.424" fill="white"/>
<path fill-rule="evenodd" clip-rule="evenodd" d="M123.398 88.8937C123.398 89.7807 124.121 90.5006 125.011 90.5006C125.901 90.5006 126.624 89.7807 126.624 88.8937C126.624 88.6398 126.553 88.4052 126.446 88.1931C125.708 87.9457 124.956 87.7336 124.195 87.5375C123.727 87.8203 123.398 88.3088 123.398 88.8937" fill="white"/>
<path fill-rule="evenodd" clip-rule="evenodd" d="M133.075 98.5348C133.965 98.5348 134.688 97.8149 134.688 96.928C134.688 96.041 133.965 95.3211 133.075 95.3211C132.185 95.3211 131.462 96.041 131.462 96.928C131.462 97.8149 132.185 98.5348 133.075 98.5348" fill="white"/>
<path fill-rule="evenodd" clip-rule="evenodd" d="M125.011 106.569C125.901 106.569 126.624 105.849 126.624 104.962C126.624 104.075 125.901 103.355 125.011 103.355C124.121 103.355 123.398 104.075 123.398 104.962C123.398 105.849 124.121 106.569 125.011 106.569" fill="white"/>
<path fill-rule="evenodd" clip-rule="evenodd" d="M133.075 114.603C133.965 114.603 134.688 113.883 134.688 112.996C134.688 112.109 133.965 111.39 133.075 111.39C132.185 111.39 131.462 112.109 131.462 112.996C131.462 113.883 132.185 114.603 133.075 114.603" fill="white"/>
<path fill-rule="evenodd" clip-rule="evenodd" d="M125.011 122.637C125.901 122.637 126.624 121.918 126.624 121.031C126.624 120.144 125.901 119.424 125.011 119.424C124.121 119.424 123.398 120.144 123.398 121.031C123.398 121.918 124.121 122.637 125.011 122.637" fill="white"/>
<path fill-rule="evenodd" clip-rule="evenodd" d="M131.462 129.065C131.462 129.653 131.795 130.145 132.269 130.424V127.705C131.795 127.985 131.462 128.477 131.462 129.065" fill="white"/>
<path fill-rule="evenodd" clip-rule="evenodd" d="M125.011 135.492C124.121 135.492 123.398 136.212 123.398 137.099C123.398 137.986 124.121 138.706 125.011 138.706C125.901 138.706 126.624 137.986 126.624 137.099C126.624 136.212 125.901 135.492 125.011 135.492" fill="white"/>
<path fill-rule="evenodd" clip-rule="evenodd" d="M108.883 90.5006C109.773 90.5006 110.496 89.7807 110.496 88.8937C110.496 88.0067 109.773 87.2869 108.883 87.2869C107.992 87.2869 107.27 88.0067 107.27 88.8937C107.27 89.7807 107.992 90.5006 108.883 90.5006" fill="white"/>
<path fill-rule="evenodd" clip-rule="evenodd" d="M116.947 98.5348C117.837 98.5348 118.56 97.8149 118.56 96.928C118.56 96.041 117.837 95.3211 116.947 95.3211C116.057 95.3211 115.334 96.041 115.334 96.928C115.334 97.8149 116.057 98.5348 116.947 98.5348" fill="white"/>
<path fill-rule="evenodd" clip-rule="evenodd" d="M108.883 106.569C109.773 106.569 110.496 105.849 110.496 104.962C110.496 104.075 109.773 103.355 108.883 103.355C107.992 103.355 107.27 104.075 107.27 104.962C107.27 105.849 107.992 106.569 108.883 106.569" fill="white"/>
<path fill-rule="evenodd" clip-rule="evenodd" d="M116.947 114.603C117.837 114.603 118.56 113.883 118.56 112.996C118.56 112.109 117.837 111.39 116.947 111.39C116.057 111.39 115.334 112.109 115.334 112.996C115.334 113.883 116.057 114.603 116.947 114.603" fill="white"/>
<path fill-rule="evenodd" clip-rule="evenodd" d="M108.883 119.424C107.992 119.424 107.27 120.144 107.27 121.031C107.27 121.918 107.992 122.637 108.883 122.637C109.773 122.637 110.496 121.918 110.496 121.031C110.496 120.144 109.773 119.424 108.883 119.424" fill="white"/>
<path fill-rule="evenodd" clip-rule="evenodd" d="M116.947 127.458C116.057 127.458 115.334 128.178 115.334 129.065C115.334 129.952 116.057 130.672 116.947 130.672C117.837 130.672 118.56 129.952 118.56 129.065C118.56 128.178 117.837 127.458 116.947 127.458" fill="white"/>
<path fill-rule="evenodd" clip-rule="evenodd" d="M108.883 135.492C107.992 135.492 107.27 136.212 107.27 137.099C107.27 137.986 107.992 138.706 108.883 138.706C109.773 138.706 110.496 137.986 110.496 137.099C110.496 136.212 109.773 135.492 108.883 135.492" fill="white"/>
<path fill-rule="evenodd" clip-rule="evenodd" d="M92.7544 90.5006C93.6447 90.5006 94.3673 89.7807 94.3673 88.8937C94.3673 88.0067 93.6447 87.2869 92.7544 87.2869C91.8641 87.2869 91.1416 88.0067 91.1416 88.8937C91.1416 89.7807 91.8641 90.5006 92.7544 90.5006" fill="white"/>
<path fill-rule="evenodd" clip-rule="evenodd" d="M100.819 98.5348C101.709 98.5348 102.431 97.8149 102.431 96.928C102.431 96.041 101.709 95.3211 100.819 95.3211C99.9283 95.3211 99.2057 96.041 99.2057 96.928C99.2057 97.8149 99.9283 98.5348 100.819 98.5348" fill="white"/>
<path fill-rule="evenodd" clip-rule="evenodd" d="M92.7544 103.355C91.8641 103.355 91.1416 104.075 91.1416 104.962C91.1416 105.849 91.8641 106.569 92.7544 106.569C93.6447 106.569 94.3673 105.849 94.3673 104.962C94.3673 104.075 93.6447 103.355 92.7544 103.355" fill="white"/>
<path fill-rule="evenodd" clip-rule="evenodd" d="M100.819 111.39C99.9283 111.39 99.2057 112.109 99.2057 112.996C99.2057 113.883 99.9283 114.603 100.819 114.603C101.709 114.603 102.431 113.883 102.431 112.996C102.431 112.109 101.709 111.39 100.819 111.39" fill="white"/>
<path fill-rule="evenodd" clip-rule="evenodd" d="M92.7544 119.424C91.8641 119.424 91.1416 120.144 91.1416 121.031C91.1416 121.918 91.8641 122.637 92.7544 122.637C93.6447 122.637 94.3673 121.918 94.3673 121.031C94.3673 120.144 93.6447 119.424 92.7544 119.424" fill="white"/>
<path fill-rule="evenodd" clip-rule="evenodd" d="M100.819 127.458C99.9283 127.458 99.2057 128.178 99.2057 129.065C99.2057 129.952 99.9283 130.672 100.819 130.672C101.709 130.672 102.431 129.952 102.431 129.065C102.431 128.178 101.709 127.458 100.819 127.458" fill="white"/>
<path fill-rule="evenodd" clip-rule="evenodd" d="M92.7544 135.492C91.8641 135.492 91.1416 136.212 91.1416 137.099C91.1416 137.986 91.8641 138.706 92.7544 138.706C93.6447 138.706 94.3673 137.986 94.3673 137.099C94.3673 136.212 93.6447 135.492 92.7544 135.492" fill="white"/>
<path fill-rule="evenodd" clip-rule="evenodd" d="M84.6903 95.3211C83.8001 95.3211 83.0775 96.041 83.0775 96.928C83.0775 97.8149 83.8001 98.5348 84.6903 98.5348C85.5806 98.5348 86.3032 97.8149 86.3032 96.928C86.3032 96.041 85.5806 95.3211 84.6903 95.3211" fill="white"/>
<path fill-rule="evenodd" clip-rule="evenodd" d="M76.6262 106.569C77.5165 106.569 78.239 105.849 78.239 104.962C78.239 104.075 77.5165 103.355 76.6262 103.355C75.7359 103.355 75.0134 104.075 75.0134 104.962C75.0134 105.849 75.7359 106.569 76.6262 106.569" fill="white"/>
<path fill-rule="evenodd" clip-rule="evenodd" d="M84.6903 111.39C83.8001 111.39 83.0775 112.109 83.0775 112.996C83.0775 113.883 83.8001 114.603 84.6903 114.603C85.5806 114.603 86.3032 113.883 86.3032 112.996C86.3032 112.109 85.5806 111.39 84.6903 111.39" fill="white"/>
<path fill-rule="evenodd" clip-rule="evenodd" d="M76.6262 119.424C76.0326 119.424 75.5391 119.758 75.2585 120.23H77.9938C77.7132 119.758 77.2197 119.424 76.6262 119.424" fill="white"/>
<path fill-rule="evenodd" clip-rule="evenodd" d="M84.6903 127.458C83.8001 127.458 83.0775 128.178 83.0775 129.065C83.0775 129.952 83.8001 130.672 84.6903 130.672C85.5806 130.672 86.3032 129.952 86.3032 129.065C86.3032 128.178 85.5806 127.458 84.6903 127.458" fill="white"/>
<path fill-rule="evenodd" clip-rule="evenodd" d="M68.562 111.39C67.6718 111.39 66.9492 112.109 66.9492 112.996C66.9492 113.883 67.6718 114.603 68.562 114.603C69.4523 114.603 70.1749 113.883 70.1749 112.996C70.1749 112.109 69.4523 111.39 68.562 111.39" fill="white"/>
<path fill-rule="evenodd" clip-rule="evenodd" d="M148.397 118.624C148.397 100.875 133.956 86.4873 116.14 86.4873H96.7865C78.9712 86.4873 64.53 100.875 64.53 118.624V121.838C64.53 104.089 78.9712 99.3421 96.7865 99.3421H116.14C133.956 99.3421 148.397 104.089 148.397 121.838V118.624Z" fill="white" fill-opacity="0.2"/>
<path d="M130.656 141.12H82.2711V117.017C82.2711 116.13 81.549 115.411 80.6582 115.411C79.7675 115.411 79.0454 116.13 79.0454 117.017V142.727C79.0454 143.614 79.7675 144.334 80.6582 144.334H132.269C133.159 144.334 133.881 143.614 133.881 142.727V117.017C133.881 116.13 133.159 115.411 132.269 115.411C131.378 115.411 130.656 116.13 130.656 117.017V141.12Z" fill="#504B46"/>
<path d="M66.1428 118.624C66.1428 101.762 79.862 88.0942 96.7865 88.0942H116.14C133.065 88.0942 146.784 101.762 146.784 118.624H132.269C131.378 118.624 130.656 119.344 130.656 120.231C130.656 121.119 131.378 121.838 132.269 121.838H148.397C149.288 121.838 150.01 121.119 150.01 120.231V118.624C150.01 99.9876 134.846 84.8805 116.14 84.8805H96.7865C78.0805 84.8805 62.9172 99.9876 62.9172 118.624V120.231C62.9172 121.119 63.6393 121.838 64.53 121.838H80.6583C81.549 121.838 82.2711 121.119 82.2711 120.231C82.2711 119.344 81.549 118.624 80.6583 118.624H66.1428Z" fill="#504B46"/>
<path d="M82.2711 123.445V120.231C82.2711 119.344 81.549 118.624 80.6582 118.624C79.7675 118.624 79.0454 119.344 79.0454 120.231V123.445C79.0454 124.332 79.7675 125.052 80.6582 125.052C81.549 125.052 82.2711 124.332 82.2711 123.445Z" fill="#504B46"/>
<path d="M105.052 123.441V141.116C105.052 142.004 105.774 142.723 106.665 142.723C107.556 142.723 108.278 142.004 108.278 141.116V123.441C108.278 122.553 107.556 121.834 106.665 121.834C105.774 121.834 105.052 122.553 105.052 123.441Z" fill="#504A45"/>
<path fill-rule="evenodd" clip-rule="evenodd" d="M175.815 149.15H170.976H167.751H164.322C155.948 149.15 148.194 146.232 148.194 125.051V120.23H135.291V125.051C135.291 155.594 151.081 162.005 164.322 162.005H167.751H170.976H175.815C179.379 162.005 182.266 159.126 182.266 155.578C182.266 152.027 179.379 149.15 175.815 149.15" fill="#FFD4C3"/>
<path fill-rule="evenodd" clip-rule="evenodd" d="M183.879 155.578C183.879 151.139 180.27 147.544 175.815 147.544H164.322C154.3 147.544 149.807 142.46 149.807 125.051V118.624H133.678V125.051C133.678 152.059 145.619 163.612 164.322 163.612H175.815C180.269 163.612 183.879 160.014 183.879 155.578ZM164.322 160.398C147.379 160.398 136.904 150.263 136.904 125.051V121.837H146.581V125.051C146.581 144.15 152.421 150.757 164.322 150.757H175.815C178.489 150.757 180.653 152.914 180.653 155.578C180.653 158.24 178.487 160.398 175.815 160.398H164.322Z" fill="#504A45"/>
<path fill-rule="evenodd" clip-rule="evenodd" d="M116.14 89.362C116.14 92.5853 114.524 95.5965 111.831 97.3834C108.579 99.543 104.347 99.543 101.096 97.3834C98.4026 95.5965 96.7865 92.5853 96.7865 89.362V75.241H116.14V89.362Z" fill="#FFDFD1"/>
<path fill-rule="evenodd" clip-rule="evenodd" d="M96.7865 86.1428C97.0316 86.2521 97.2607 86.3742 97.5187 86.4738C102.935 88.6334 109.992 88.6334 115.408 86.4738C115.666 86.3742 115.895 86.2521 116.14 86.1428V75.2388H96.7865V86.1428Z" fill="#FFCAB3"/>
<path fill-rule="evenodd" clip-rule="evenodd" d="M112.726 98.7203C115.867 96.6366 117.753 93.1238 117.753 89.362V75.241C117.753 74.3536 117.031 73.6342 116.14 73.6342H96.7865C95.8958 73.6342 95.1737 74.3536 95.1737 75.241V89.362C95.1737 93.1238 97.0604 96.6366 100.202 98.7208C103.995 101.24 108.932 101.24 112.726 98.7203ZM101.991 96.0464C99.7467 94.5578 98.3994 92.0491 98.3994 89.362V76.8478H114.528V89.362C114.528 92.0491 113.18 94.5578 110.937 96.0459C108.227 97.8461 104.7 97.8461 101.991 96.0464Z" fill="#504B46"/>
<path fill-rule="evenodd" clip-rule="evenodd" d="M138.72 51.1367C138.72 48.1447 136.659 45.6541 133.881 44.9375V43.1025C133.881 28.9044 120.714 17.3929 106.463 17.3929C92.2125 17.3929 79.0454 28.9044 79.0454 43.1025V44.9375C76.2681 45.6541 74.2069 48.1447 74.2069 51.1367C74.2069 54.1544 76.3004 56.6675 79.1163 57.3584C79.8518 70.9009 92.6867 81.6668 106.463 81.6668C120.24 81.6668 133.075 70.9009 133.81 57.3584C136.626 56.6675 138.72 54.1544 138.72 51.1367" fill="#FFD4C3"/>
<path fill-rule="evenodd" clip-rule="evenodd" d="M135.335 58.5485C138.306 57.3342 140.333 54.4435 140.333 51.1367C140.333 47.8931 138.38 45.0495 135.494 43.7971V43.1025C135.494 28.268 121.884 15.7861 106.463 15.7861C91.0426 15.7861 77.4326 28.268 77.4326 43.1025V43.7971C74.5474 45.0495 72.5941 47.8931 72.5941 51.1367C72.5941 54.4435 74.6208 57.3342 77.5915 58.5485C78.9718 72.2371 91.9923 83.2736 106.463 83.2736C120.935 83.2736 133.955 72.2371 135.335 58.5485ZM133.477 46.493C135.602 47.0414 137.107 48.9368 137.107 51.1367C137.107 53.3597 135.575 55.2706 133.425 55.7982L132.265 56.0829L132.2 57.2716C131.525 69.7034 119.66 80.0599 106.463 80.0599C93.2667 80.0599 81.402 69.7034 80.7269 57.2716L80.6623 56.0829L79.5021 55.7982C77.3518 55.2706 75.8198 53.3597 75.8198 51.1367C75.8198 48.9368 77.3247 47.0414 79.4498 46.493L80.6582 46.1812V43.1025C80.6582 30.105 92.7672 18.9998 106.463 18.9998C120.16 18.9998 132.269 30.105 132.269 43.1025V46.1812L133.477 46.493Z" fill="#504A45"/>
<path d="M103.052 51.9951C101.742 49.5149 99.4326 47.923 96.7865 47.923C94.1404 47.923 91.8312 49.5149 90.5208 51.9951C90.1059 52.7804 90.4085 53.7521 91.1967 54.1654C91.9849 54.5788 92.9602 54.2773 93.3752 53.4921C94.1596 52.0075 95.4226 51.1367 96.7865 51.1367C98.1503 51.1367 99.4134 52.0075 100.198 53.4921C100.613 54.2773 101.588 54.5788 102.376 54.1654C103.164 53.7521 103.467 52.7804 103.052 51.9951Z" fill="#504B46"/>
<path d="M122.406 51.9951C121.096 49.5149 118.787 47.923 116.14 47.923C113.494 47.923 111.185 49.5149 109.875 51.9951C109.46 52.7804 109.762 53.7521 110.551 54.1654C111.339 54.5788 112.314 54.2773 112.729 53.4921C113.513 52.0075 114.777 51.1367 116.14 51.1367C117.504 51.1367 118.767 52.0075 119.552 53.4921C119.967 54.2773 120.942 54.5788 121.73 54.1654C122.518 53.7521 122.821 52.7804 122.406 51.9951Z" fill="#504B46"/>
<path fill-rule="evenodd" clip-rule="evenodd" d="M108.278 39.885C117.413 39.885 125.716 37.6771 132.006 34.081C127.9 24.3403 117.523 17.3923 106.465 17.3923C96.0914 17.3923 86.3209 23.5048 81.7566 32.2974C88.2563 36.9412 97.7139 39.885 108.278 39.885" fill="#F9BEAA"/>
<path fill-rule="evenodd" clip-rule="evenodd" d="M128.505 30.7793C128.602 34.0058 136.35 78.2712 106.664 80.0548C77.6433 81.803 82.7398 30.2426 87.3105 30.2426C95.3747 31.8494 111.693 35.783 129.044 28.6357C138.921 -11.5354 68.6211 -2.88413 70.9823 30.2426C77.6336 27.0289 79.0464 31.8494 79.0464 36.67C79.0464 52.0314 79.8528 61.9778 79.0464 67.2C73.6531 102.11 97.5262 103.891 106.935 122.636C117.419 102.821 142.018 94.3654 133.882 65.9949C132.673 61.7785 136.905 30.7793 128.505 30.7793" fill="#FFD183"/>
<path fill-rule="evenodd" clip-rule="evenodd" d="M134.252 81.3435C134.142 81.3403 134.036 81.321 133.926 81.3146C134.262 81.4367 134.6 81.5685 134.926 81.6745C134.946 81.5685 134.955 81.456 134.975 81.3499C134.73 81.3435 134.504 81.3531 134.252 81.3435" fill="#FFC258"/>
<path fill-rule="evenodd" clip-rule="evenodd" d="M78.4406 81.3467C78.4503 81.4271 78.4632 81.501 78.4729 81.5781C78.7116 81.4978 78.9599 81.4046 79.2019 81.3146C79.0954 81.321 78.989 81.3403 78.8793 81.3435C78.7277 81.3499 78.589 81.3435 78.4406 81.3467" fill="#FFC258"/>
<path fill-rule="evenodd" clip-rule="evenodd" d="M104.526 79.7453C101.075 79.6457 98.1458 78.7491 95.6814 77.2483C90.8655 79.5718 85.198 81.0147 79.2048 81.3136C78.9596 81.4036 78.7112 81.4968 78.4725 81.5803C78.8467 84.733 79.5596 87.5096 80.5337 89.9906C90.3139 89.2193 99.1425 85.4593 104.526 79.7453" fill="#FFC258"/>
<path fill-rule="evenodd" clip-rule="evenodd" d="M133.928 81.3146C127.605 80.9964 121.664 79.396 116.69 76.8411C114.367 78.1877 111.635 79.1261 108.432 79.5342C113.7 85.2578 122.377 89.066 132.057 89.9433C133.373 87.3885 134.376 84.6632 134.924 81.6745C134.602 81.5685 134.26 81.4367 133.928 81.3146" fill="#FFC258"/>
<path fill-rule="evenodd" clip-rule="evenodd" d="M77.3171 30.5717C85.3554 12.8578 116.728 6.74859 129.244 18.9542C126.828 -10.3772 68.1885 -0.585049 70.3464 29.7265C74.1366 27.8979 76.2204 28.6756 77.3171 30.5717" fill="#FFEDD8"/>
<path fill-rule="evenodd" clip-rule="evenodd" d="M136.173 48.4535C136.011 50.3947 135.793 52.3672 135.472 54.9429C134.461 63.0471 134.356 64.1482 134.604 64.8794C140.111 81.1092 136.246 90.7111 122.776 105.266C122.18 105.91 120.027 108.22 120.12 108.12C114.014 114.684 110.921 118.548 108.362 123.385C107.75 124.543 106.08 124.525 105.493 123.355C103.006 118.4 100.137 115.199 93.3427 108.974L93.0062 108.666C78.7103 95.5688 74.3788 86.8505 77.4523 66.9557C77.8784 64.1966 77.8784 61.9578 77.6132 50.2883C77.4909 44.9063 77.4336 41.0475 77.4336 36.67C77.4336 34.2073 77.0331 32.3784 76.2733 31.4765C75.5172 30.5792 74.1773 30.4847 71.686 31.6884C70.6593 32.1845 69.4543 31.4904 69.3735 30.3564C68.2209 14.186 83.7544 1.86502 102.703 0.350767C122.325 -1.21736 135.363 9.68918 130.611 29.0181C130.579 29.1474 130.531 29.2709 130.47 29.3862C135.801 30.6418 137.097 37.3864 136.173 48.4535ZM91.9182 32.7983C91.0884 32.6426 90.2749 32.4825 89.2705 32.2794C89.2684 32.279 88.2102 32.0637 87.6461 31.935C87.495 32.1811 87.3248 32.5454 87.1529 33.0102C86.6711 34.3131 86.2375 36.2241 85.9228 38.4917C85.207 43.6493 85.1827 49.8577 85.9877 55.5813C88.0707 70.392 94.8194 79.1586 106.567 78.4509C118.892 77.7104 125.271 69.2495 127.244 55.1304C128.105 48.9721 128.035 42.5348 127.39 35.7103C127.345 35.2359 127.255 34.3869 127.163 33.5265L127.163 33.5255L127.163 33.5245C127.066 32.6054 126.967 31.6737 126.92 31.1724C115.642 35.1855 104.66 35.19 91.9182 32.7983ZM130.439 55.5736C131.34 49.1256 131.268 42.4599 130.601 35.4088C130.544 34.8076 130.436 33.7943 130.337 32.8634C132.895 34.388 133.679 39.5533 132.959 48.1871C132.801 50.0769 132.588 52.0104 132.271 54.5466C131.05 64.3375 131.042 64.4175 131.548 65.9084C136.593 80.7761 133.16 89.3049 120.405 103.088C119.813 103.727 117.665 106.032 117.754 105.935C112.537 111.544 109.426 115.276 106.959 119.33C104.517 115.269 101.407 111.997 95.5261 106.608L95.1895 106.3C81.6087 93.8583 77.7574 86.1064 80.6405 67.4445C81.1104 64.401 81.1104 62.2025 80.838 50.2156C80.7162 44.8558 80.6592 41.0186 80.6592 36.67C80.6592 33.515 80.1175 31.0406 78.7439 29.4103C77.296 27.6919 75.1818 27.1944 72.5557 27.9209C73.0746 14.8925 86.4925 4.87022 102.961 3.55417C120.34 2.16527 131.283 11.068 127.663 27.4595C116.366 31.9244 105.436 32.0654 92.5154 29.6402C91.7027 29.4876 90.903 29.3303 89.9123 29.1299C89.9153 29.1306 88.0971 28.7606 87.6268 28.6669C83.0616 28.6357 81.0149 43.3824 82.7933 56.0273C85.0805 72.2901 92.9339 82.4917 106.762 81.6587C120.912 80.8085 128.277 71.0383 130.439 55.5736Z" fill="#504A45"/>
<path fill-rule="evenodd" clip-rule="evenodd" d="M139.459 67.469C143.895 65.6629 146.581 73.0255 140.937 74.0314C132.56 75.5226 113.651 59.6148 106.664 63.9886C99.6805 59.6148 80.7718 75.5226 72.3915 74.0314C66.7466 73.0255 69.4368 65.6629 73.8721 67.469C62.3114 58.1622 57.6374 82.583 78.9783 81.6639C90.781 81.1562 101.422 76.2392 106.664 68.8092C111.906 76.2392 122.55 81.1562 134.353 81.6639C155.694 82.583 151.017 58.1622 139.459 67.469" fill="#FFD183"/>
<path fill-rule="evenodd" clip-rule="evenodd" d="M125.52 67.2366L125.228 67.0933C114.954 62.0468 110.348 60.4493 106.664 62.1605C102.982 60.4487 98.3786 62.046 88.0966 67.0962L87.8107 67.2366C78.9656 71.5827 75.3828 72.9314 72.6751 72.4496C71.0919 72.1675 70.5637 71.2689 70.8973 70.1552C71.2274 69.053 72.1704 68.5119 73.2619 68.9564C74.9816 69.6567 76.3308 67.3825 74.8858 66.2192C68.5516 61.1199 62.3974 64.5565 62.4744 71.439C62.5524 78.4023 68.8274 83.7094 79.048 83.2693C90.4298 82.7796 100.79 78.3297 106.664 71.4316C112.538 78.3293 122.901 82.7796 134.284 83.2693C144.504 83.7094 150.778 78.4023 150.856 71.4389C150.932 64.5565 144.778 61.1198 138.445 66.2194C137.001 67.3827 138.35 69.6566 140.07 68.9564C141.161 68.512 142.103 69.0527 142.432 70.1545C142.765 71.2684 142.237 72.1674 140.653 72.4496C137.947 72.9313 134.366 71.5831 125.52 67.2366ZM141.22 75.6132C144.733 74.9873 146.397 72.1578 145.524 69.2369C145.26 68.3558 144.8 67.5897 144.202 66.9895C146.314 66.8552 147.662 68.5686 147.63 71.4033C147.574 76.4678 142.897 80.4236 134.423 80.0586C123.066 79.57 112.903 74.8583 107.984 67.8852C107.341 66.9747 105.987 66.9747 105.345 67.8852C100.425 74.8589 90.2646 79.57 78.9088 80.0586C70.4339 80.4236 65.7565 76.4677 65.6999 71.4032C65.6681 68.5685 67.0162 66.8551 69.1289 66.9895C68.5303 67.5896 68.0701 68.3554 67.8063 69.2363C66.9314 72.1572 68.595 74.9872 72.1076 75.6131C75.8418 76.2776 79.5247 74.8912 89.2375 70.1188L89.5229 69.9786C99.2056 65.2228 103.446 63.871 105.806 65.349C106.33 65.6775 106.998 65.6776 107.522 65.3492C109.883 63.8712 114.126 65.2231 123.802 69.9758L124.093 70.1188C133.807 74.8919 137.488 76.2776 141.22 75.6132Z" fill="#504A45"/>
<path fill-rule="evenodd" clip-rule="evenodd" d="M114.729 155.578C114.729 152.027 111.842 149.15 108.278 149.15H103.439H100.214H96.7881C88.4111 149.15 80.6599 146.232 80.6599 125.051V120.23H67.7573V125.051C67.7573 155.594 83.5436 162.005 96.7881 162.005H100.214H103.439H108.278C111.842 162.005 114.729 159.126 114.729 155.578" fill="#FFD4C3"/>
<path fill-rule="evenodd" clip-rule="evenodd" d="M108.278 163.612C112.732 163.612 116.342 160.014 116.342 155.578C116.342 151.139 112.733 147.544 108.278 147.544H96.7881C86.7646 147.544 82.2727 142.461 82.2727 125.051V118.624H66.1444V125.051C66.1444 152.06 78.083 163.612 96.7881 163.612H108.278ZM96.7881 160.398C79.8437 160.398 69.3701 150.264 69.3701 125.051V121.837H79.047V125.051C79.047 144.152 84.8854 150.757 96.7881 150.757H108.278C110.951 150.757 113.116 152.914 113.116 155.578C113.116 158.24 110.95 160.398 108.278 160.398H96.7881Z" fill="#504A45"/>
<path fill-rule="evenodd" clip-rule="evenodd" d="M211.499 166.826C211.499 169.487 185.503 171.646 153.437 171.646C121.371 171.646 95.3752 169.487 95.3752 166.826C95.3752 164.165 121.371 162.005 153.437 162.005C185.503 162.005 211.499 164.165 211.499 166.826" fill="black" fill-opacity="0.0757212"/>
<path fill-rule="evenodd" clip-rule="evenodd" d="M141.537 155.578H135.086L150.491 107.993C150.924 106.665 152.162 105.766 153.562 105.766H157.665" fill="#E3ECF1"/>
<path d="M152.026 108.486C152.242 107.822 152.863 107.372 153.562 107.372H157.665V104.159H153.562C151.463 104.159 149.605 105.507 148.957 107.497L133.551 155.085C133.215 156.122 133.991 157.185 135.086 157.185H141.537V153.971H137.3L152.026 108.486Z" fill="#504A45"/>
<path fill-rule="evenodd" clip-rule="evenodd" d="M204.437 155.578H141.537L157.665 105.766H216.137C217.166 105.766 218.136 106.257 218.743 107.086C219.349 107.919 219.523 108.989 219.204 109.966L204.437 155.578Z" fill="white"/>
<path fill-rule="evenodd" clip-rule="evenodd" d="M141.537 157.185H204.437C205.137 157.185 205.757 156.735 205.972 156.071L220.739 110.459C221.217 108.998 220.958 107.392 220.048 106.143C219.136 104.896 217.681 104.159 216.137 104.159H157.665C156.965 104.159 156.345 104.609 156.13 105.272L140.002 155.084C139.666 156.122 140.443 157.185 141.537 157.185ZM217.439 108.033C217.743 108.449 217.829 108.984 217.671 109.468L203.263 153.971H143.752L158.84 107.372H216.137C216.65 107.372 217.137 107.619 217.439 108.033Z" fill="#504A45"/>
<path fill-rule="evenodd" clip-rule="evenodd" d="M200.209 105.766H157.666L141.538 155.578H150.211L200.209 105.766Z" fill="#DADADA"/>
<path fill-rule="evenodd" clip-rule="evenodd" d="M204.437 155.578H138.311V163.612H197.986C201.55 163.612 204.437 160.736 204.437 157.185V155.578Z" fill="#DDDDDD"/>
<path fill-rule="evenodd" clip-rule="evenodd" d="M206.05 155.578C206.05 154.69 205.328 153.971 204.437 153.971H138.311C137.421 153.971 136.698 154.69 136.698 155.578V163.612C136.698 164.499 137.421 165.219 138.311 165.219H197.986C202.441 165.219 206.05 161.623 206.05 157.185V155.578ZM139.924 162.005V157.185H202.824C202.824 159.848 200.659 162.005 197.986 162.005H139.924Z" fill="#504A45"/>
<path fill-rule="evenodd" clip-rule="evenodd" d="M138.311 155.578H106.055V157.185C106.055 160.736 108.942 163.612 112.506 163.612H138.311V155.578Z" fill="#F1F1F1"/>
<path fill-rule="evenodd" clip-rule="evenodd" d="M139.924 155.578C139.924 154.69 139.202 153.971 138.311 153.971H106.055C105.164 153.971 104.442 154.69 104.442 155.578V157.185C104.442 161.623 108.051 165.219 112.506 165.219H138.311C139.202 165.219 139.924 164.499 139.924 163.612V155.578ZM112.506 162.005C109.832 162.005 107.668 159.848 107.668 157.185H136.698V162.005H112.506Z" fill="#504A45"/>
<path fill-rule="evenodd" clip-rule="evenodd" d="M186.183 128.898C186.163 126.9 187.818 125.939 187.896 125.894C186.963 124.537 185.512 124.351 184.996 124.329C183.764 124.203 182.589 125.052 181.96 125.052C181.338 125.052 180.37 124.348 179.348 124.364C178.003 124.386 176.761 125.145 176.07 126.344C174.67 128.76 175.712 132.337 177.074 134.297C177.738 135.258 178.535 136.335 179.573 136.293C180.58 136.255 180.957 135.647 182.17 135.647C183.383 135.647 183.725 136.293 184.786 136.274C185.867 136.258 186.551 135.3 187.212 134.336C187.976 133.224 188.289 132.147 188.309 132.09C188.283 132.08 186.205 131.286 186.183 128.898" fill="#EDF2F4"/>
<path fill-rule="evenodd" clip-rule="evenodd" d="M188.875 130.585C188.38 130.4 187.805 129.855 187.796 128.883C187.791 128.407 187.957 128.018 188.256 127.676C188.436 127.471 188.605 127.342 188.708 127.282C189.517 126.811 189.756 125.756 189.226 124.986C188.146 123.415 186.594 122.79 185.066 122.723C184.284 122.641 183.544 122.809 182.566 123.184C182.506 123.207 182.452 123.228 182.402 123.247C182.129 123.351 181.996 123.402 181.951 123.426C181.912 123.407 181.821 123.372 181.66 123.309C181.59 123.282 181.506 123.25 181.407 123.211C180.601 122.897 180.027 122.746 179.322 122.757C177.404 122.789 175.643 123.856 174.671 125.544C173.068 128.312 173.793 132.397 175.747 135.212C177.063 137.114 177.976 137.966 179.639 137.899C180.238 137.876 180.671 137.753 181.266 137.502L181.389 137.45C181.762 137.292 181.903 137.254 182.17 137.254C182.41 137.254 182.535 137.288 182.88 137.436L183.005 137.49C183.651 137.766 184.135 137.893 184.816 137.88C186.451 137.856 187.28 137.085 188.543 135.243C188.944 134.661 189.267 134.051 189.525 133.443C189.682 133.073 189.787 132.773 189.839 132.598C190.113 131.778 189.687 130.889 188.875 130.585ZM185.463 126.025C184.893 126.839 184.559 127.808 184.57 128.914C184.587 130.708 185.318 131.96 186.292 132.763C186.181 132.97 186.049 133.184 185.881 133.428C185.212 134.404 184.932 134.665 184.762 134.667C184.62 134.67 184.539 134.649 184.276 134.536L184.157 134.485C183.444 134.179 182.933 134.04 182.17 134.04C181.386 134.04 180.864 134.18 180.127 134.492L180.01 134.542C179.742 134.655 179.645 134.682 179.511 134.687C179.437 134.69 179.063 134.342 178.402 133.386C177.085 131.489 176.585 128.67 177.467 127.147C177.883 126.424 178.611 125.983 179.375 125.971C179.546 125.968 179.79 126.032 180.232 126.204C181.371 126.648 181.402 126.658 181.96 126.658C182.317 126.658 182.632 126.586 183.011 126.455C183.186 126.394 183.913 126.111 183.723 126.184C184.265 125.976 184.589 125.902 184.832 125.927C185.052 125.938 185.263 125.969 185.463 126.025Z" fill="#504A45"/>
<path d="M184.611 121.363L186.066 119.914C186.696 119.287 186.696 118.269 186.066 117.642C185.436 117.014 184.415 117.014 183.785 117.642L182.33 119.091C181.7 119.719 181.7 120.736 182.33 121.363C182.96 121.991 183.981 121.991 184.611 121.363Z" fill="#504A45"/>
<path fill-rule="evenodd" clip-rule="evenodd" d="M141.537 157.185H204.437C205.137 157.185 205.757 156.735 205.972 156.071L220.739 110.459C221.217 108.998 220.958 107.392 220.048 106.143C219.136 104.896 217.681 104.159 216.137 104.159H157.665C156.965 104.159 156.345 104.609 156.13 105.272L140.002 155.084C139.666 156.122 140.443 157.185 141.537 157.185ZM217.439 108.033C217.743 108.449 217.829 108.984 217.671 109.468L203.263 153.971H143.752L158.84 107.372H216.137C216.65 107.372 217.137 107.619 217.439 108.033Z" fill="#504A45"/>
<path d="M37.4282 92.9916C34.908 95.5025 34.908 99.5737 37.4292 102.081L40.2636 104.905C41.5209 106.16 41.5209 108.196 40.2636 109.449L37.4282 112.274C34.908 114.785 34.908 118.856 37.4292 121.363C38.0596 121.99 39.0807 121.99 39.7101 121.361C40.3394 120.733 40.3385 119.716 39.7081 119.089C38.4489 117.837 38.4489 115.802 39.7091 114.546L42.5444 111.721C45.0611 109.214 45.0611 105.144 42.5454 102.634L39.7091 99.8079C38.4489 98.5545 38.4489 96.5196 39.7091 95.2641C40.3389 94.6365 40.3389 93.6191 39.7091 92.9916C39.0792 92.3641 38.0581 92.3641 37.4282 92.9916Z" fill="white"/>
<path d="M49.6628 92.9916C47.1425 95.5025 47.1425 99.5737 49.6637 102.081L52.4981 104.905C53.7554 106.16 53.7554 108.196 52.4981 109.449L49.6628 112.274C47.1425 114.785 47.1425 118.856 49.6637 121.363C50.2941 121.99 51.3153 121.99 51.9446 121.361C52.5739 120.733 52.5731 119.716 51.9427 119.089C50.6834 117.837 50.6834 115.802 51.9436 114.546L54.779 111.721C57.2957 109.214 57.2957 105.144 54.78 102.634L51.9436 99.8079C50.6834 98.5545 50.6834 96.5196 51.9436 95.2641C52.5735 94.6365 52.5735 93.6191 51.9436 92.9916C51.3138 92.3641 50.2926 92.3641 49.6628 92.9916Z" fill="white"/>
<path fill-rule="evenodd" clip-rule="evenodd" d="M66.3444 168.433C66.3444 170.207 56.2352 171.646 43.7649 171.646C31.2945 171.646 21.1853 170.207 21.1853 168.433C21.1853 166.659 31.2945 165.219 43.7649 165.219C56.2352 165.219 66.3444 166.659 66.3444 168.433" fill="#E3ECF1"/>
<path fill-rule="evenodd" clip-rule="evenodd" d="M29.2494 160.398C22.1336 160.398 16.3468 154.633 16.3468 147.544C16.3468 140.454 22.1336 134.689 29.2494 134.689V141.116C25.6915 141.116 22.7981 143.999 22.7981 147.544C22.7981 151.088 25.6915 153.971 29.2494 153.971V160.398Z" fill="white"/>
<path fill-rule="evenodd" clip-rule="evenodd" d="M14.734 147.544C14.734 155.52 21.2429 162.005 29.2494 162.005C30.1402 162.005 30.8623 161.286 30.8623 160.398V153.971C30.8623 153.084 30.1402 152.364 29.2494 152.364C26.5823 152.364 24.411 150.201 24.411 147.544C24.411 144.886 26.5823 142.723 29.2494 142.723C30.1402 142.723 30.8623 142.004 30.8623 141.116V134.689C30.8623 133.801 30.1402 133.082 29.2494 133.082C21.2429 133.082 14.734 139.567 14.734 147.544ZM21.1853 147.544C21.1853 151.426 23.9589 154.671 27.6366 155.417V158.677C22.1727 157.895 17.9597 153.2 17.9597 147.544C17.9597 141.887 22.1727 137.192 27.6366 136.41V139.671C23.9589 140.416 21.1853 143.662 21.1853 147.544Z" fill="#504A45"/>
<path fill-rule="evenodd" clip-rule="evenodd" d="M61.3044 163.612C61.3044 165.386 59.8593 166.826 58.0787 166.826H32.6767C30.8961 166.826 29.451 165.386 29.451 163.612V129.868C29.451 128.094 30.8961 126.655 32.6767 126.655H58.0787C59.8593 126.655 61.3044 128.094 61.3044 129.868V163.612Z" fill="white"/>
<path fill-rule="evenodd" clip-rule="evenodd" d="M58.0787 168.433C60.75 168.433 62.9171 166.273 62.9171 163.612V129.868C62.9171 127.207 60.75 125.048 58.0787 125.048H32.6767C30.0054 125.048 27.8382 127.207 27.8382 129.868V163.612C27.8382 166.273 30.0054 168.433 32.6767 168.433H58.0787ZM59.6915 129.868V163.612C59.6915 164.499 58.9685 165.219 58.0787 165.219H32.6767C31.7869 165.219 31.0638 164.499 31.0638 163.612V129.868C31.0638 128.982 31.7869 128.261 32.6767 128.261H58.0787C58.9685 128.261 59.6915 128.982 59.6915 129.868Z" fill="#504A45"/>
<path fill-rule="evenodd" clip-rule="evenodd" d="M50.0146 145.937C50.0146 145.937 55.4917 143.449 55.4917 139.455C55.4917 135.454 50.6339 135.145 50.0146 139.146C49.3952 135.145 44.5374 135.454 44.5374 139.76C44.5374 144.066 50.0146 145.937 50.0146 145.937" fill="#FE3C72"/>
</svg>
